<?xml version="1.0" encoding="UTF-8" standalone="no"?>
<svg
   xmlns:dc="http://purl.org/dc/elements/1.1/"
   xmlns:cc="http://creativecommons.org/ns#"
   xmlns:rdf="http://www.w3.org/1999/02/22-rdf-syntax-ns#"
   xmlns:svg="http://www.w3.org/2000/svg"
   xmlns="http://www.w3.org/2000/svg"
   xmlns:sodipodi="http://sodipodi.sourceforge.net/DTD/sodipodi-0.dtd"
   xmlns:inkscape="http://www.inkscape.org/namespaces/inkscape"
   width="210mm"
   height="297mm"
   viewBox="0 0 210 297"
   version="1.1"
   id="svg906"
   inkscape:version="1.0.1 (c497b03c, 2020-09-10)"
   sodipodi:docname="jac_2.svg">
  <defs
     id="defs900" />
  <sodipodi:namedview
     id="base"
     pagecolor="#ffffff"
     bordercolor="#666666"
     borderopacity="1.0"
     inkscape:pageopacity="0.0"
     inkscape:pageshadow="2"
     inkscape:zoom="0.35"
     inkscape:cx="0"
     inkscape:cy="-63.864399"
     inkscape:document-units="mm"
     inkscape:current-layer="layer1"
     inkscape:document-rotation="0"
     showgrid="false"
     inkscape:window-width="1280"
     inkscape:window-height="706"
     inkscape:window-x="0"
     inkscape:window-y="23"
     inkscape:window-maximized="0" />
  <metadata
     id="metadata903">
    <rdf:RDF>
      <cc:Work
         rdf:about="">
        <dc:format>image/svg+xml</dc:format>
        <dc:type
           rdf:resource="http://purl.org/dc/dcmitype/StillImage" />
        <dc:title></dc:title>
      </cc:Work>
    </rdf:RDF>
  </metadata>
  <g
     inkscape:label="Layer 1"
     inkscape:groupmode="layer"
     id="layer1">
    <ellipse
       style="fill:#f7b815;fill-opacity:1;stroke:none;stroke-width:1.76678"
       id="path184-1"
       cx="8.1136932"
       cy="-43.10548"
       rx="10.717142"
       ry="10.716615"
       inkscape:export-filename="/Users/contato318/REPOSITORIO/JAC/logo/logo9.png"
       inkscape:export-xdpi="95"
       inkscape:export-ydpi="95" />
    <ellipse
       style="fill:#f7b815;fill-opacity:1;stroke:none;stroke-width:1.74488"
       id="path186-8"
       cx="-11.517563"
       cy="-5.0052214"
       rx="15.230609"
       ry="15.123829"
       inkscape:export-filename="/Users/contato318/REPOSITORIO/JAC/logo/logo9.png"
       inkscape:export-xdpi="95"
       inkscape:export-ydpi="95" />
    <ellipse
       style="fill:#f7b815;fill-opacity:1;stroke:none;stroke-width:1.67357"
       id="path188-8"
       cx="15.137802"
       cy="45.184292"
       rx="23.550772"
       ry="23.952133"
       inkscape:export-filename="/Users/contato318/REPOSITORIO/JAC/logo/logo9.png"
       inkscape:export-xdpi="95"
       inkscape:export-ydpi="95" />
    <path
       style="fill:#f7b815;fill-opacity:1;stroke:none;stroke-width:1.58703px;stroke-linecap:butt;stroke-linejoin:miter;stroke-opacity:1"
       d="m -72.212769,69.546464 c -12.24592,103.089196 131.5336,106.260386 133.63744,17.95103 -95.68167,18.152666 -49.68669,-29.15679 -133.63744,-17.95103 z"
       id="path190-3"
       sodipodi:nodetypes="ccc"
       inkscape:export-filename="/Users/contato318/REPOSITORIO/JAC/logo/logo9.png"
       inkscape:export-xdpi="95"
       inkscape:export-ydpi="95" />
    <path
       style="fill:#000000;stroke-width:0.264583"
       d="m -221.36275,-72.299408 c -4.42348,-0.801846 -7.89513,-2.217235 -11.78273,-4.803775 -7.10346,-4.726199 -12.4448,-12.647031 -14.33534,-21.258371 -0.65201,-2.969866 -0.80513,-9.078596 -0.30887,-12.322546 1.07098,-7.00085 3.82135,-12.40377 9.09189,-17.86046 6.15494,-6.37233 12.90689,-9.47327 21.63854,-9.93783 7.14299,-0.38005 13.73461,1.22508 19.40201,4.72461 3.10804,1.91916 7.91225,6.67621 10.0368,9.93828 2.78583,4.27739 4.44624,8.74694 5.1173,13.77495 0.38838,2.90997 0.1488,9.80519 -0.43351,12.476746 -1.33555,6.127326 -4.14766,11.172957 -8.85119,15.88127 -5.0282,5.033354 -11.05785,8.284581 -17.42279,9.394534 -2.75491,0.480431 -9.48354,0.476303 -12.15211,-0.0074 z"
       id="path1560"
       inkscape:export-filename="/Users/contato318/REPOSITORIO/JAC/logo/logo9.png"
       inkscape:export-xdpi="95"
       inkscape:export-ydpi="95" />
    <path
       style="fill:#000000;stroke-width:0.264583"
       d="m 314.22407,225.32603 c -35.14008,-1.16224 -64.31746,-10.58852 -89.57337,-28.93833 -20.13958,-14.63251 -34.8248,-33.04947 -44.30691,-55.56594 -5.12037,-12.15895 -8.45886,-26.03091 -9.64689,-40.08436 -0.34462,-4.076536 -0.34684,-17.653106 -0.004,-22.621876 1.4065,-20.36627 5.80814,-37.60911 13.89245,-54.42206 13.47304,-28.0198001 33.43662,-48.36337 60.94458,-62.10459 19.44132,-9.711663 39.75865,-15.037672 63.13308,-16.549766 5.35016,-0.346128 17.34767,-0.349038 22.36181,-0.0056 25.89258,1.77419 50.2743,9.242028 70.77604,21.677846 5.02727,3.04943 5.42679,3.31322 5.35303,3.53452 -0.0396,0.11877 -7.2625,10.01244 -16.05093,21.9858899 l -15.97895,21.7699201 -3.06573,-1.82557 C 360.57336,5.3371039 348.68872,1.4340839 333.0092,-0.64795608 328.05773,-1.3054661 313.28152,-1.3063461 308.40295,-0.65095608 288.26217,2.0610239 272.1703,9.9783539 258.00196,24.146694 c -13.99211,13.99209 -21.62577,31.27541 -22.44968,50.82823 -1.22124,28.981446 8.81372,56.095356 27.09743,73.215856 11.40844,10.6826 25.6653,18.18275 40.49282,21.30218 24.07959,5.0659 51.98491,-0.0649 71.34455,-13.11783 0.83918,-0.56578 1.63925,-0.95861 1.77792,-0.87288 0.35907,0.2219 34.4724,43.54496 34.36006,43.63635 -2.19461,1.78541 -9.06412,5.89269 -13.91946,8.32247 -18.71499,9.36564 -42.37554,15.69013 -65.4162,17.48584 -3.81896,0.29765 -13.20307,0.50519 -17.06562,0.37742 z"
       id="path1558"
       inkscape:export-filename="/Users/contato318/REPOSITORIO/JAC/logo/logo9.png"
       inkscape:export-xdpi="95"
       inkscape:export-ydpi="95" />
    <path
       style="fill:#000000;stroke-width:0.264583"
       d="m -15.405069,225.74547 c -14.89614,-0.88918 -28.47266,-3.50348 -42.50732,-8.18523 -19.15027,-6.38823 -36.53379,-16.06417 -51.872961,-28.87334 -4.26665,-3.56291 -12.16624,-11.32316 -15.89748,-15.61706 -22.34865,-25.71882 -33.56727,-55.64903 -33.55826,-89.530356 0.009,-32.97134 10.58884,-61.95912 32.01492,-87.7158801 3.34566,-4.02191 12.4658,-13.2075199 16.79399,-16.9145999 6.34991,-5.43867 14.783001,-11.39963 22.092711,-15.61637 9.24023,-5.33035 21.99326,-10.80442 33.6737,-14.453924 3.48596,-1.089157 13.05023,-3.557032 15.34036,-3.958246 l 0.99219,-0.173831 v 30.259441 30.2594499 l -1.65365,0.63539 c -5.63765,2.16625 -14.44924,7.3395701 -20.57135,12.0774901 -3.32987,2.57702 -11.40663,10.46395 -13.93801,13.61046 -10.31221,12.81808 -16.07331,26.09358 -18.25632,42.06875 -0.62135,4.54697 -0.61501,15.18137 0.0119,19.97604 2.45905,18.806976 10.31555,34.587136 24.11264,48.431386 17.62005,17.68027 38.14077,26.30773 62.5739499,26.30773 12.51297,0 23.5381601,-2.16284 34.5281301,-6.77341 16.07516,-6.74394 31.74399,-20.38409 41.29818,-35.95113 11.78382,-19.19991 14.81598,-43.654176 8.14631,-65.700166 -5.89204,-19.4755 -20.14157,-37.32516 -38.67471,-48.44576 -3.03032,-1.8183001 -8.61004,-4.6298601 -11.11892,-5.6027101 l -1.63524,-0.63407 V -25.004476 c 0,-16.626496 0.0791,-30.229995 0.17569,-30.229995 0.66437,0 9.39617,2.108226 13.13788,3.172037 22.27133,6.332008 41.69958,16.599558 58.17243,30.743288 4.698449,4.03413 13.265789,12.5675999 16.686029,16.6200899 16.7467,19.8423501 26.67024,40.6519101 30.72307,64.4260401 0.84836,4.97642 1.39531,9.83615 1.75694,15.61042 0.1954,3.11952 0.22516,26.815786 0.0972,77.324466 l -0.18452,72.82656 H 114.42099 81.787601 v -11.24479 c 0,-8.86365 -0.0706,-11.24479 -0.33319,-11.24479 -0.18325,0 -2.6538,1.02147 -5.4901,2.26996 -17.93097,7.89279 -26.87077,11.41267 -35.45171,13.95849 -10.6603,3.16275 -20.94151,5.1131 -32.2791701,6.12344 -5.64229,0.50279 -18.2901099,0.71401 -23.6385099,0.39473 z"
       id="path1556"
       inkscape:export-filename="/Users/contato318/REPOSITORIO/JAC/logo/logo9.png"
       inkscape:export-xdpi="95"
       inkscape:export-ydpi="95" />
    <path
       style="fill:#000000;stroke-width:0.264583"
       d="m -296.30197,287.77548 c -5.45703,-15.79634 -9.95727,-28.81877 -10.00052,-28.93873 -0.0433,-0.11996 0.90924,-0.29924 2.11666,-0.39838 13.69247,-1.12437 24.42678,-3.60913 31.16719,-7.21447 8.21293,-4.39299 14.31898,-10.82903 18.51707,-19.51776 3.39338,-7.02323 5.35419,-15.41751 6.07712,-26.01637 0.18653,-2.73466 0.27665,-45.89524 0.27665,-132.490066 V -55.234471 h 32.94526 32.94526 l -0.0808,138.707815 c -0.0746,128.045116 -0.11547,139.104406 -0.53148,143.867166 -2.2854,26.16491 -6.06705,40.33751 -14.29615,53.57813 -3.27896,5.27584 -8.70924,11.43291 -13.50572,15.31334 -12.99869,10.5161 -32.8927,17.01565 -59.17218,19.33205 -4.41353,0.38904 -13.64154,0.94189 -15.61041,0.93522 l -0.92605,-0.003 z"
       id="path1522"
       inkscape:export-filename="/Users/contato318/REPOSITORIO/JAC/logo/logo9.png"
       inkscape:export-xdpi="95"
       inkscape:export-ydpi="95" />
    <text
       xml:space="preserve"
       style="font-size:109.478px;line-height:1.25;font-family:'Josefin Sans';-inkscape-font-specification:'Josefin Sans';fill:#f7b815;fill-opacity:1;stroke-width:2.73696"
       x="61.783768"
       y="298.17947"
       id="text1569"
       inkscape:export-filename="/Users/contato318/REPOSITORIO/JAC/logo/logo9.png"
       inkscape:export-xdpi="95"
       inkscape:export-ydpi="95"><tspan
         sodipodi:role="line"
         id="tspan1567"
         x="61.783768"
         y="298.17947"
         style="fill:#f7b815;fill-opacity:1;stroke-width:2.73696">experts</tspan></text>
  </g>
</svg>
