<?xml version="1.0" encoding="UTF-8" standalone="no"?>
<svg
   width="210mm"
   height="297mm"
   viewBox="0 0 210 297"
   version="1.1"
   id="svg906"
   inkscape:version="1.1.1 (c3084ef, 2021-09-22)"
   sodipodi:docname="jac_2.svg"
   inkscape:export-filename="/Users/dirceu.junior/REPOSITORIOS/JAC/NewBiz/jac_brannco.png"
   inkscape:export-xdpi="96"
   inkscape:export-ydpi="96"
   xmlns:inkscape="http://www.inkscape.org/namespaces/inkscape"
   xmlns:sodipodi="http://sodipodi.sourceforge.net/DTD/sodipodi-0.dtd"
   xmlns="http://www.w3.org/2000/svg"
   xmlns:svg="http://www.w3.org/2000/svg"
   xmlns:rdf="http://www.w3.org/1999/02/22-rdf-syntax-ns#"
   xmlns:cc="http://creativecommons.org/ns#"
   xmlns:dc="http://purl.org/dc/elements/1.1/">
  <defs
     id="defs900" />
  <sodipodi:namedview
     id="base"
     pagecolor="#ffffff"
     bordercolor="#666666"
     borderopacity="1.0"
     inkscape:pageopacity="0.0"
     inkscape:pageshadow="2"
     inkscape:zoom="0.076"
     inkscape:cx="605.26316"
     inkscape:cy="-2526.3158"
     inkscape:document-units="mm"
     inkscape:current-layer="layer1"
     inkscape:document-rotation="0"
     showgrid="false"
     inkscape:window-width="1680"
     inkscape:window-height="930"
     inkscape:window-x="71"
     inkscape:window-y="25"
     inkscape:window-maximized="0"
     inkscape:pagecheckerboard="0"
     showguides="true"
     inkscape:guide-bbox="true">
    <sodipodi:guide
       position="429.38094,71.726193"
       orientation="0,-1"
       id="guide2432" />
    <sodipodi:guide
       position="199.57143,351.42857"
       orientation="0,-1"
       id="guide2434" />
    <sodipodi:guide
       position="-102.05357,-18.988096"
       orientation="0,-1"
       id="guide4421" />
  </sodipodi:namedview>
  <metadata
     id="metadata903">
    <rdf:RDF>
      <cc:Work
         rdf:about="">
        <dc:format>image/svg+xml</dc:format>
        <dc:type
           rdf:resource="http://purl.org/dc/dcmitype/StillImage" />
        <dc:title />
      </cc:Work>
    </rdf:RDF>
  </metadata>
  <g
     inkscape:label="Layer 1"
     inkscape:groupmode="layer"
     id="layer1">
    <g
       id="g6199"
       transform="matrix(0.99564876,0,0,1.0043703,-33.448853,543.24244)"
       style="font-size:504.872px;line-height:1.25;stroke:#000000;stroke-width:13.522">
      <ellipse
         style="fill:#f7b815;fill-opacity:1;stroke:none;stroke-width:1.76678"
         id="path184-1"
         cx="8.1136932"
         cy="-43.10548"
         rx="10.717142"
         ry="10.716615"
         inkscape:export-filename="/Users/contato318/REPOSITORIO/JAC/logo/logo9.png"
         inkscape:export-xdpi="95"
         inkscape:export-ydpi="95"
         transform="scale(1.0043703,0.99564873)" />
      <ellipse
         style="fill:#f7b815;fill-opacity:1;stroke:none;stroke-width:1.74488"
         id="path186-8"
         cx="-11.517563"
         cy="-5.0052214"
         rx="15.230609"
         ry="15.123829"
         inkscape:export-filename="/Users/contato318/REPOSITORIO/JAC/logo/logo9.png"
         inkscape:export-xdpi="95"
         inkscape:export-ydpi="95"
         transform="scale(1.0043703,0.99564873)" />
      <ellipse
         style="fill:#f7b815;fill-opacity:1;stroke:none;stroke-width:1.67357"
         id="path188-8"
         cx="15.137802"
         cy="45.184292"
         rx="23.550772"
         ry="23.952133"
         inkscape:export-filename="/Users/contato318/REPOSITORIO/JAC/logo/logo9.png"
         inkscape:export-xdpi="95"
         inkscape:export-ydpi="95"
         transform="scale(1.0043703,0.99564873)" />
      <path
         style="fill:#f7b815;fill-opacity:1;stroke:none;stroke-width:1.58703px;stroke-linecap:butt;stroke-linejoin:miter;stroke-opacity:1"
         d="m -72.212769,69.546464 c -12.24592,103.089196 131.5336,106.260386 133.63744,17.95103 -95.68167,18.152666 -49.68669,-29.15679 -133.63744,-17.95103 z"
         id="path190-3"
         sodipodi:nodetypes="ccc"
         inkscape:export-filename="/Users/contato318/REPOSITORIO/JAC/logo/logo9.png"
         inkscape:export-xdpi="95"
         inkscape:export-ydpi="95"
         transform="scale(1.0043703,0.99564873)" />
      <path
         style="fill:#000000;stroke-width:0.264583"
         d="m -221.36275,-72.299408 c -4.42348,-0.801846 -7.89513,-2.217235 -11.78273,-4.803775 -7.10346,-4.726199 -12.4448,-12.647031 -14.33534,-21.258371 -0.65201,-2.969866 -0.80513,-9.078596 -0.30887,-12.322546 1.07098,-7.00085 3.82135,-12.40377 9.09189,-17.86046 6.15494,-6.37233 12.90689,-9.47327 21.63854,-9.93783 7.14299,-0.38005 13.73461,1.22508 19.40201,4.72461 3.10804,1.91916 7.91225,6.67621 10.0368,9.93828 2.78583,4.27739 4.44624,8.74694 5.1173,13.77495 0.38838,2.90997 0.1488,9.80519 -0.43351,12.476746 -1.33555,6.127326 -4.14766,11.172957 -8.85119,15.88127 -5.0282,5.033354 -11.05785,8.284581 -17.42279,9.394534 -2.75491,0.480431 -9.48354,0.476303 -12.15211,-0.0074 z"
         id="path1560"
         inkscape:export-filename="/Users/contato318/REPOSITORIO/JAC/logo/logo9.png"
         inkscape:export-xdpi="95"
         inkscape:export-ydpi="95"
         transform="scale(1.0043703,0.99564873)" />
      <path
         style="fill:#000000;stroke-width:0.264583"
         d="m 314.22407,225.32603 c -35.14008,-1.16224 -64.31746,-10.58852 -89.57337,-28.93833 -20.13958,-14.63251 -34.8248,-33.04947 -44.30691,-55.56594 -5.12037,-12.15895 -8.45886,-26.03091 -9.64689,-40.08436 -0.34462,-4.076536 -0.34684,-17.653106 -0.004,-22.621876 1.4065,-20.36627 5.80814,-37.60911 13.89245,-54.42206 13.47304,-28.0198001 33.43662,-48.36337 60.94458,-62.10459 19.44132,-9.711663 39.75865,-15.037672 63.13308,-16.549766 5.35016,-0.346128 17.34767,-0.349038 22.36181,-0.0056 25.89258,1.77419 50.2743,9.242028 70.77604,21.677846 5.02727,3.04943 5.42679,3.31322 5.35303,3.53452 -0.0396,0.11877 -7.2625,10.01244 -16.05093,21.9858899 l -15.97895,21.7699201 -3.06573,-1.82557 C 360.57336,5.3371039 348.68872,1.4340839 333.0092,-0.64795608 328.05773,-1.3054661 313.28152,-1.3063461 308.40295,-0.65095608 288.26217,2.0610239 272.1703,9.9783539 258.00196,24.146694 c -13.99211,13.99209 -21.62577,31.27541 -22.44968,50.82823 -1.22124,28.981446 8.81372,56.095356 27.09743,73.215856 11.40844,10.6826 25.6653,18.18275 40.49282,21.30218 24.07959,5.0659 51.98491,-0.0649 71.34455,-13.11783 0.83918,-0.56578 1.63925,-0.95861 1.77792,-0.87288 0.35907,0.2219 34.4724,43.54496 34.36006,43.63635 -2.19461,1.78541 -9.06412,5.89269 -13.91946,8.32247 -18.71499,9.36564 -42.37554,15.69013 -65.4162,17.48584 -3.81896,0.29765 -13.20307,0.50519 -17.06562,0.37742 z"
         id="path1558"
         inkscape:export-filename="/Users/contato318/REPOSITORIO/JAC/logo/logo9.png"
         inkscape:export-xdpi="95"
         inkscape:export-ydpi="95"
         transform="scale(1.0043703,0.99564873)" />
      <path
         style="fill:#000000;stroke-width:0.264583"
         d="m -15.405069,225.74547 c -14.89614,-0.88918 -28.47266,-3.50348 -42.50732,-8.18523 -19.15027,-6.38823 -36.53379,-16.06417 -51.872961,-28.87334 -4.26665,-3.56291 -12.16624,-11.32316 -15.89748,-15.61706 -22.34865,-25.71882 -33.56727,-55.64903 -33.55826,-89.530356 0.009,-32.97134 10.58884,-61.95912 32.01492,-87.7158801 3.34566,-4.02191 12.4658,-13.2075199 16.79399,-16.9145999 6.34991,-5.43867 14.783001,-11.39963 22.092711,-15.61637 9.24023,-5.33035 21.99326,-10.80442 33.6737,-14.453924 3.48596,-1.089157 13.05023,-3.557032 15.34036,-3.958246 l 0.99219,-0.173831 v 30.259441 30.2594499 l -1.65365,0.63539 c -5.63765,2.16625 -14.44924,7.3395701 -20.57135,12.0774901 -3.32987,2.57702 -11.40663,10.46395 -13.93801,13.61046 -10.31221,12.81808 -16.07331,26.09358 -18.25632,42.06875 -0.62135,4.54697 -0.61501,15.18137 0.0119,19.97604 2.45905,18.806976 10.31555,34.587136 24.11264,48.431386 17.62005,17.68027 38.14077,26.30773 62.5739499,26.30773 12.51297,0 23.5381601,-2.16284 34.5281301,-6.77341 16.07516,-6.74394 31.74399,-20.38409 41.29818,-35.95113 11.78382,-19.19991 14.81598,-43.654176 8.14631,-65.700166 -5.89204,-19.4755 -20.14157,-37.32516 -38.67471,-48.44576 -3.03032,-1.8183001 -8.61004,-4.6298601 -11.11892,-5.6027101 l -1.63524,-0.63407 V -25.004476 c 0,-16.626496 0.0791,-30.229995 0.17569,-30.229995 0.66437,0 9.39617,2.108226 13.13788,3.172037 22.27133,6.332008 41.69958,16.599558 58.17243,30.743288 4.698449,4.03413 13.265789,12.5675999 16.686029,16.6200899 16.7467,19.8423501 26.67024,40.6519101 30.72307,64.4260401 0.84836,4.97642 1.39531,9.83615 1.75694,15.61042 0.1954,3.11952 0.22516,26.815786 0.0972,77.324466 l -0.18452,72.82656 H 114.42099 81.787601 v -11.24479 c 0,-8.86365 -0.0706,-11.24479 -0.33319,-11.24479 -0.18325,0 -2.6538,1.02147 -5.4901,2.26996 -17.93097,7.89279 -26.87077,11.41267 -35.45171,13.95849 -10.6603,3.16275 -20.94151,5.1131 -32.2791701,6.12344 -5.64229,0.50279 -18.2901099,0.71401 -23.6385099,0.39473 z"
         id="path1556"
         inkscape:export-filename="/Users/contato318/REPOSITORIO/JAC/logo/logo9.png"
         inkscape:export-xdpi="95"
         inkscape:export-ydpi="95"
         transform="scale(1.0043703,0.99564873)" />
      <path
         style="fill:#000000;stroke-width:0.264583"
         d="m -296.30197,287.77548 c -5.45703,-15.79634 -9.95727,-28.81877 -10.00052,-28.93873 -0.0433,-0.11996 0.90924,-0.29924 2.11666,-0.39838 13.69247,-1.12437 24.42678,-3.60913 31.16719,-7.21447 8.21293,-4.39299 14.31898,-10.82903 18.51707,-19.51776 3.39338,-7.02323 5.35419,-15.41751 6.07712,-26.01637 0.18653,-2.73466 0.27665,-45.89524 0.27665,-132.490066 V -55.234471 h 32.94526 32.94526 l -0.0808,138.707815 c -0.0746,128.045116 -0.11547,139.104406 -0.53148,143.867166 -2.2854,26.16491 -6.06705,40.33751 -14.29615,53.57813 -3.27896,5.27584 -8.70924,11.43291 -13.50572,15.31334 -12.99869,10.5161 -32.8927,17.01565 -59.17218,19.33205 -4.41353,0.38904 -13.64154,0.94189 -15.61041,0.93522 l -0.92605,-0.003 z"
         id="path1522"
         inkscape:export-filename="/Users/contato318/REPOSITORIO/JAC/logo/logo9.png"
         inkscape:export-xdpi="95"
         inkscape:export-ydpi="95"
         transform="scale(1.0043703,0.99564873)" />
      <text
         xml:space="preserve"
         style="font-size:181.819px;line-height:1.25;font-family:'Josefin Sans';-inkscape-font-specification:'Josefin Sans';fill:#f7b815;fill-opacity:1;stroke-width:4.54549"
         x="71.379616"
         y="308.73001"
         id="text1569"
         inkscape:export-filename="/Users/contato318/REPOSITORIO/JAC/logo/logo9.png"
         inkscape:export-xdpi="95"
         inkscape:export-ydpi="95"
         transform="scale(1.0043703,0.99564873)"><tspan
           sodipodi:role="line"
           id="tspan1567"
           x="71.379616"
           y="308.73001"
           style="fill:#f7b815;fill-opacity:1;stroke-width:4.54549">experts</tspan></text>
      <path
         id="path4425"
         style="color:#000000;fill:#000000;stroke:none;stroke-width:13.6988;-inkscape-stroke:none"
         d="m 433.84952,-158.52583 v 382.81941 h 63.73592 v -92.36526 l 24.46749,-21.06527 114.76506,113.43053 h 84.73937 L 710.35195,213.34479 568.89257,75.133942 712.54782,-54.196965 H 629.85625 L 497.58544,69.105018 V -158.52583 Z" />
    </g>
    <g
       id="g964"
       inkscape:export-filename="/Users/dirceu.junior/REPOSITORIOS/JAC/NewBiz/preto.png"
       inkscape:export-xdpi="96"
       inkscape:export-ydpi="96">
      <g
         id="g18011"
         inkscape:export-filename="/Users/dirceu.junior/REPOSITORIOS/JAC/NewBiz/assets/img/jac/preto.png"
         inkscape:export-xdpi="96"
         inkscape:export-ydpi="96"
         transform="matrix(0.99564876,0,0,1.0043703,-241.71811,-9.7993827)"
         style="font-size:504.872px;line-height:1.25;stroke:#000000;stroke-width:13.522">
        <ellipse
           style="fill:#f7b815;fill-opacity:1;stroke:none;stroke-width:1.76678"
           id="path184-1-6"
           cx="-370.366"
           cy="-1151.8031"
           rx="10.763979"
           ry="10.669984"
           inkscape:export-filename="/Users/contato318/REPOSITORIO/JAC/logo/logo9.png"
           inkscape:export-xdpi="95"
           inkscape:export-ydpi="95" />
        <ellipse
           style="font-size:504.872px;line-height:1.25;fill:#f7b815;fill-opacity:1;stroke:none;stroke-width:0.88339"
           id="path184-1-6-4"
           cx="-390.70444"
           cy="-1180.7069"
           rx="5.3819895"
           ry="5.3349919"
           inkscape:export-filename="/Users/contato318/REPOSITORIO/JAC/logo/logo9.png"
           inkscape:export-xdpi="95"
           inkscape:export-ydpi="95" />
        <ellipse
           style="fill:#f7b815;fill-opacity:1;stroke:none;stroke-width:1.74488"
           id="path186-8-0"
           cx="-390.08304"
           cy="-1113.8685"
           rx="15.297172"
           ry="15.058021"
           inkscape:export-filename="/Users/contato318/REPOSITORIO/JAC/logo/logo9.png"
           inkscape:export-xdpi="95"
           inkscape:export-ydpi="95" />
        <ellipse
           style="fill:#f7b815;fill-opacity:1;stroke:none;stroke-width:1.67357"
           id="path188-8-4"
           cx="-363.31119"
           cy="-1063.8975"
           rx="23.653696"
           ry="23.847912"
           inkscape:export-filename="/Users/contato318/REPOSITORIO/JAC/logo/logo9.png"
           inkscape:export-xdpi="95"
           inkscape:export-ydpi="95" />
        <path
           style="fill:#f7b815;fill-opacity:1;stroke:none;stroke-width:1.58703px;stroke-linecap:butt;stroke-linejoin:miter;stroke-opacity:1"
           d="m -451.04351,-1039.6413 c -12.29944,102.64062 132.10844,105.79801 134.22148,17.8729 -96.09983,18.0737 -49.90384,-29.0299 -134.22148,-17.8729 z"
           id="path190-3-0"
           sodipodi:nodetypes="ccc"
           inkscape:export-filename="/Users/contato318/REPOSITORIO/JAC/logo/logo9.png"
           inkscape:export-xdpi="95"
           inkscape:export-ydpi="95" />
        <path
           style="fill:#000000;stroke-width:0.264583"
           d="m -600.84535,-1180.8699 c -4.4428,-0.7984 -7.9296,-2.2076 -11.8342,-4.7829 -7.1345,-4.7056 -12.4992,-12.592 -14.398,-21.1659 -0.6548,-2.9569 -0.8086,-9.0391 -0.3102,-12.2689 1.0757,-6.9704 3.838,-12.3498 9.1316,-17.7827 6.1819,-6.3447 12.9633,-9.4321 21.7331,-9.8946 7.1742,-0.3784 13.7947,1.2197 19.4868,4.704 3.1217,1.9108 7.9469,6.6472 10.0807,9.8951 2.798,4.2587 4.4657,8.7088 5.1397,13.715 0.39,2.8973 0.1494,9.7625 -0.4354,12.4224 -1.3414,6.1007 -4.1658,11.1244 -8.8899,15.8122 -5.0502,5.0114 -11.1062,8.2485 -17.499,9.3536 -2.7669,0.4784 -9.5249,0.4743 -12.2052,-0.01 z"
           id="path1560-5"
           inkscape:export-filename="/Users/contato318/REPOSITORIO/JAC/logo/logo9.png"
           inkscape:export-xdpi="95"
           inkscape:export-ydpi="95" />
        <path
           style="fill:#000000;stroke-width:0.264583"
           d="m -62.917827,-884.53958 c -35.29365,-1.15719 -64.598543,-10.54245 -89.964833,-28.81242 -20.2276,-14.56884 -34.97699,-32.90566 -44.50054,-55.32415 -5.14275,-12.10605 -8.49583,-25.91765 -9.68905,-39.90995 -0.34613,-4.0588 -0.34836,-17.5763 -0.004,-22.5234 1.41265,-20.2777 5.83352,-37.4455 13.95316,-54.1853 13.53192,-27.8979 33.58275,-48.1529 61.21093,-61.8343 19.52628,-9.6694 39.932413,-14.9723 63.408993,-16.4778 5.37354,-0.3446 17.42348,-0.3475 22.45954,-0.01 26.00574,1.7665 50.4940099,9.2018 71.08535,21.5835 5.04924,3.0362 5.45051,3.2988 5.37642,3.5192 -0.0398,0.1182 -7.29423,9.9688 -16.12107,21.8902 l -16.0487901,21.6752 -3.07912,-1.8176 c -11.5351199,-6.8093 -23.4716999,-10.6953 -39.2197399,-12.7683 -4.97311,-0.6547 -19.8139,-0.6555 -24.71379,0 -20.2288,2.7002 -36.390993,10.583 -50.621253,24.6897 -14.05326,13.9312 -21.72029,31.1394 -22.5478,50.6071 -1.22657,28.8553 8.85224,55.85126 27.21586,72.89726 11.4583,10.63612 25.777463,18.10363 40.669783,21.20949 24.18483,5.04386 52.2121,-0.0646 71.6563499,-13.06075 0.84285,-0.56332 1.64641002,-0.95444 1.78569002,-0.86908 0.36064,0.22093 34.62306008,43.35548 34.51022008,43.44647 -2.2042,1.77765 -9.10373,5.86705 -13.98029,8.28626 -18.7967801,9.32489 -42.56073,15.62186 -65.70209,17.40976 -3.83565,0.29635 -13.26077,0.50299 -17.1402,0.37577 z"
           id="path1558-6"
           inkscape:export-filename="/Users/contato318/REPOSITORIO/JAC/logo/logo9.png"
           inkscape:export-xdpi="95"
           inkscape:export-ydpi="95" />
        <path
           style="fill:#000000;stroke-width:0.264583"
           d="m -393.98754,-884.12197 c -14.96124,-0.88531 -28.5971,-3.48823 -42.69309,-8.14961 -19.23397,-6.36044 -36.69346,-15.99427 -52.09966,-28.74771 -4.2853,-3.5474 -12.21942,-11.27389 -15.96696,-15.5491 -22.44632,-25.60691 -33.714,-55.40689 -33.7049,-89.14081 0.01,-32.8278 10.6351,-61.6895 32.15481,-87.3342 3.36029,-4.0044 12.52028,-13.15 16.86739,-16.841 6.37766,-5.415 14.84761,-11.35 22.18926,-15.5484 9.28061,-5.3072 22.08938,-10.7574 33.82087,-14.391 3.50119,-1.0844 13.10726,-3.5416 15.4074,-3.9411 l 0.99652,-0.173 v 30.1277 30.1278 l -1.66087,0.6327 c -5.66229,2.1568 -14.51239,7.3076 -20.66126,12.0249 -3.34442,2.5658 -11.45648,10.4184 -13.99892,13.5512 -10.35728,12.7623 -16.14356,25.9801 -18.33611,41.8857 -0.62406,4.5272 -0.61769,15.1153 0.012,19.8891 2.46979,18.72518 10.36063,34.43668 24.21802,48.22069 17.69705,17.60334 38.30745,26.19326 62.84741,26.19326 12.56766,0 23.64103,-2.15343 34.67903,-6.74394 16.14541,-6.71459 31.88272,-20.29539 41.47867,-35.7947 11.83532,-19.11631 14.88073,-43.46421 8.18191,-65.41431 -5.91779,-19.3907 -20.2296,-37.1627 -38.84373,-48.2349 -3.04357,-1.8104 -8.64767,-4.6097 -11.16751,-5.5784 l -1.64239,-0.6313 v -30.0984 c 0,-16.5542 0.0794,-30.0985 0.17646,-30.0985 0.66727,0 9.43723,2.0991 13.19529,3.1582 22.36867,6.3045 41.88182,16.5274 58.42666,30.6096 4.71899,4.0165 13.32377,12.5129 16.75896,16.5477 16.81988,19.756 26.78679,40.4751 30.85734,64.1457 0.85206,4.9548 1.4014,9.7934 1.76461,15.5425 0.19626,3.106 0.22615,26.6991 0.0976,76.98804 l -0.18533,72.50967 h -32.77604 -32.776 v -11.19586 c 0,-8.82508 -0.0709,-11.19586 -0.33465,-11.19586 -0.18405,0 -2.6654,1.01702 -5.51409,2.26008 -18.00934,7.85845 -26.98821,11.36301 -35.60665,13.89775 -10.70689,3.14899 -21.03303,5.09085 -32.42024,6.0968 -5.66695,0.5006 -18.37004,0.7109 -23.74181,0.39301 z"
           id="path1556-8"
           inkscape:export-filename="/Users/contato318/REPOSITORIO/JAC/logo/logo9.png"
           inkscape:export-xdpi="95"
           inkscape:export-ydpi="95" />
        <path
           style="fill:#000000;stroke-width:0.264583"
           d="m -676.11205,-822.36187 c -5.4809,-15.7276 -10.0008,-28.69337 -10.0442,-28.81281 -0.043,-0.11944 0.9132,-0.29794 2.1259,-0.39665 13.7523,-1.11947 24.5335,-3.59342 31.3034,-7.18307 8.2488,-4.37388 14.3815,-10.78191 18.598,-19.43284 3.4082,-6.99267 5.3776,-15.35042 6.1037,-25.90316 0.1873,-2.72276 0.2778,-45.69554 0.2778,-131.9136 v -127.8753 h 33.0893 33.0892 l -0.081,138.1043 c -0.075,127.48793 -0.1159,138.49909 -0.5338,143.24113 -2.2953,26.05106 -6.0935,40.16199 -14.3586,53.345 -3.2933,5.25288 -8.7473,11.38316 -13.5647,15.2467 -13.0555,10.47035 -33.0365,16.94161 -59.4308,19.24794 -4.4328,0.38734 -13.7012,0.93779 -15.6786,0.93115 l -0.9301,-0.003 z"
           id="path1522-5"
           inkscape:export-filename="/Users/contato318/REPOSITORIO/JAC/logo/logo9.png"
           inkscape:export-xdpi="95"
           inkscape:export-ydpi="95" />
        <text
           xml:space="preserve"
           style="font-size:181.819px;line-height:1.25;font-family:'Josefin Sans';-inkscape-font-specification:'Josefin Sans';fill:#f7b815;fill-opacity:1;stroke:#f7b815;stroke-width:4.54549"
           x="-308.75494"
           y="-793.16663"
           id="text1569-37"
           inkscape:export-filename="/Users/contato318/REPOSITORIO/JAC/logo/logo9.png"
           inkscape:export-xdpi="95"
           inkscape:export-ydpi="95"
           transform="scale(1.0043703,0.99564872)"><tspan
             sodipodi:role="line"
             id="tspan1567-6"
             x="-308.75494"
             y="-793.16663"
             style="fill:#f7b815;fill-opacity:1;stroke:#f7b815;stroke-width:4.54549">experts</tspan></text>
        <path
           id="path4425-8"
           style="color:#000000;font-size:504.872px;line-height:1.25;fill:#000000;stroke:none;stroke-width:13.6988;-inkscape-stroke:none"
           d="m 55.334373,-1267.411 v 382.81942 h 63.735917 v -92.36526 l 24.46749,-21.06527 114.76506,113.43053 h 84.73937 L 331.8368,-895.54037 190.37742,-1033.7512 334.03267,-1163.0821 H 251.3411 l -132.27081,123.302 v -227.6309 z" />
      </g>
    </g>
    <g
       id="g978"
       inkscape:export-filename="/Users/dirceu.junior/REPOSITORIOS/JAC/NewBiz/branco.png"
       inkscape:export-xdpi="96"
       inkscape:export-ydpi="96">
      <ellipse
         style="font-size:504.872px;line-height:1.25;fill:#f7b815;fill-opacity:1;stroke:none;stroke-width:1.76678"
         id="path184-1-6-1"
         cx="645.96527"
         cy="-1219.3385"
         rx="10.717142"
         ry="10.716615"
         inkscape:export-filename="/Users/dirceu.junior/REPOSITORIOS/JAC/NewBiz/branco.png"
         inkscape:export-xdpi="95"
         inkscape:export-ydpi="95" />
      <ellipse
         style="font-size:504.872px;line-height:1.25;fill:#f7b815;fill-opacity:1;stroke:none;stroke-width:0.88339"
         id="path184-1-6-4-1"
         cx="625.71533"
         cy="-1248.3687"
         rx="5.3585711"
         ry="5.3583074"
         inkscape:export-filename="/Users/dirceu.junior/REPOSITORIOS/JAC/NewBiz/branco.png"
         inkscape:export-xdpi="95"
         inkscape:export-ydpi="95" />
      <ellipse
         style="font-size:504.872px;line-height:1.25;fill:#f7b815;fill-opacity:1;stroke:none;stroke-width:1.74488"
         id="path186-8-0-5"
         cx="626.33405"
         cy="-1181.2382"
         rx="15.23061"
         ry="15.123829"
         inkscape:export-filename="/Users/dirceu.junior/REPOSITORIOS/JAC/NewBiz/branco.png"
         inkscape:export-xdpi="95"
         inkscape:export-ydpi="95" />
      <ellipse
         style="font-size:504.872px;line-height:1.25;fill:#f7b815;fill-opacity:1;stroke:none;stroke-width:1.67357"
         id="path188-8-4-0"
         cx="652.98938"
         cy="-1131.0487"
         rx="23.550774"
         ry="23.952135"
         inkscape:export-filename="/Users/dirceu.junior/REPOSITORIOS/JAC/NewBiz/branco.png"
         inkscape:export-xdpi="95"
         inkscape:export-ydpi="95" />
      <path
         style="font-size:504.872px;line-height:1.25;fill:#f7b815;fill-opacity:1;stroke:none;stroke-width:1.58703px;stroke-linecap:butt;stroke-linejoin:miter;stroke-opacity:1"
         d="m 565.6388,-1106.6865 c -12.24592,103.0892 131.53361,106.2604 133.63745,17.951 -95.68167,18.1527 -49.68669,-29.1568 -133.63745,-17.951 z"
         id="path190-3-0-0"
         sodipodi:nodetypes="ccc"
         inkscape:export-filename="/Users/dirceu.junior/REPOSITORIOS/JAC/NewBiz/branco.png"
         inkscape:export-xdpi="95"
         inkscape:export-ydpi="95" />
      <path
         style="font-size:504.872px;line-height:1.25;fill:#ffffff;stroke:#ffffff;stroke-width:0.264583"
         d="m 416.48879,-1248.5323 c -4.42347,-0.8019 -7.8951,-2.2173 -11.78271,-4.8038 -7.10346,-4.7262 -12.44481,-12.6471 -14.33535,-21.2584 -0.65195,-2.9698 -0.80508,-9.0786 -0.30885,-12.3225 1.07102,-7.0009 3.8213,-12.4038 9.09187,-17.8605 6.155,-6.3724 12.90689,-9.4733 21.63853,-9.9378 7.14298,-0.3801 13.73468,1.225 19.40201,4.7246 3.10811,1.9191 7.91232,6.6762 10.03683,9.9383 2.78583,4.2773 4.44627,8.7469 5.11734,13.7749 0.3883,2.91 0.14875,9.8052 -0.4335,12.4767 -1.33557,6.1274 -4.14768,11.173 -8.85122,15.8813 -5.02823,5.0333 -11.05788,8.2846 -17.42286,9.3945 -2.75486,0.4805 -9.48346,0.4764 -12.15209,-0.01 z"
         id="path1560-5-8"
         inkscape:export-filename="/Users/dirceu.junior/REPOSITORIOS/JAC/NewBiz/branco.png"
         inkscape:export-xdpi="95"
         inkscape:export-ydpi="95" />
      <path
         style="font-size:504.872px;line-height:1.25;fill:#ffffff;stroke:#ffffff;stroke-width:0.264583"
         d="m 952.07566,-950.90696 c -35.14008,-1.16224 -64.31746,-10.58852 -89.57338,-28.93833 -20.13958,-14.63251 -34.82479,-33.04951 -44.3069,-55.56601 -5.12038,-12.1589 -8.45887,-26.0308 -9.64689,-40.0843 -0.34463,-4.0765 -0.34685,-17.6531 -0.004,-22.6218 1.40651,-20.3663 5.80814,-37.6092 13.89245,-54.4221 13.47304,-28.0198 33.43662,-48.3634 60.94459,-62.1046 19.44131,-9.7116 39.75865,-15.0377 63.13308,-16.5498 5.35016,-0.3461 17.34767,-0.349 22.36181,-0.01 25.89258,1.7742 50.27437,9.242 70.77607,21.6778 5.0273,3.0495 5.4267,3.3132 5.353,3.5346 -0.04,0.1187 -7.2625,10.0124 -16.0509,21.9859 l -15.979,21.7699 -3.0657,-1.8256 c -11.48497,-6.839 -23.36957,-10.742 -39.04909,-12.8241 -4.95147,-0.6575 -19.72769,-0.6583 -24.60625,0 -20.14078,2.712 -36.23265,10.6293 -50.40099,24.7976 -13.99211,13.9921 -21.62578,31.2755 -22.44969,50.8283 -1.22123,28.9814 8.81372,56.0953 27.09744,73.2158 11.40844,10.6827 25.66529,18.1828 40.49281,21.3022 24.0796,5.0659 51.98492,-0.065 71.34457,-13.1178 0.8392,-0.5658 1.6393,-0.9587 1.778,-0.8729 0.359,0.2219 34.4723,43.54497 34.36,43.63636 -2.1946,1.78542 -9.0641,5.89269 -13.9195,8.32247 -18.715,9.36564 -42.37553,15.69013 -65.41619,17.48585 -3.81896,0.29764 -13.20307,0.50519 -17.06562,0.37741 z"
         id="path1558-6-3"
         inkscape:export-filename="/Users/dirceu.junior/REPOSITORIOS/JAC/NewBiz/branco.png"
         inkscape:export-xdpi="95"
         inkscape:export-ydpi="95" />
      <path
         style="font-size:504.872px;line-height:1.25;fill:#ffffff;stroke:#ffffff;stroke-width:0.264583"
         d="m 622.44651,-950.48752 c -14.89614,-0.88918 -28.47267,-3.50348 -42.50732,-8.18523 -19.15028,-6.38823 -36.5338,-16.06417 -51.87296,-28.87334 -4.26666,-3.56291 -12.16625,-11.32316 -15.89749,-15.61701 -22.34865,-25.7189 -33.5673,-55.6491 -33.55824,-89.5304 0.01,-32.9713 10.58882,-61.9591 32.0149,-87.7159 3.34566,-4.0219 12.4658,-13.2075 16.79399,-16.9146 6.34991,-5.4387 14.78301,-11.3996 22.09271,-15.6163 9.24023,-5.3304 21.99327,-10.8045 33.67371,-14.4539 3.48595,-1.0892 13.05023,-3.5571 15.34036,-3.9584 l 0.99218,-0.1737 v 30.2593 30.2595 l -1.65364,0.6355 c -5.63765,2.1662 -14.44924,7.3395 -20.57136,12.0774 -3.32987,2.577 -11.40663,10.464 -13.93801,13.6105 -10.31221,12.818 -16.07331,26.0936 -18.25632,42.0687 -0.62135,4.547 -0.615,15.1814 0.0119,19.976 2.45904,18.8071 10.31554,34.5872 24.11264,48.4315 17.62004,17.6802 38.14076,26.3076 62.57394,26.3076 12.51298,0 23.53817,-2.1628 34.52814,-6.7733 16.07515,-6.744 31.74399,-20.3841 41.29818,-35.9512 11.78382,-19.1998 14.81598,-43.6541 8.14631,-65.7001 -5.89204,-19.4755 -20.14158,-37.3252 -38.67471,-48.4457 -3.03033,-1.8184 -8.61004,-4.6299 -11.11892,-5.6028 l -1.63524,-0.6341 v -30.2299 c 0,-16.6266 0.079,-30.2301 0.17569,-30.2301 0.66437,0 9.39617,2.1083 13.13787,3.172 22.27134,6.3321 41.69959,16.5997 58.17244,30.7434 4.69845,4.0341 13.26579,12.5676 16.68603,16.62 16.7467,19.8424 26.67024,40.652 30.72308,64.4261 0.84835,4.9764 1.3953,9.8362 1.75693,15.6104 0.1954,3.1196 0.22516,26.8158 0.0972,77.3245 l -0.18452,72.82654 h -32.63342 -32.63339 v -11.24479 c 0,-8.86365 -0.0706,-11.24479 -0.33319,-11.24479 -0.18325,0 -2.6538,1.02147 -5.4901,2.26996 -17.93098,7.89279 -26.87078,11.41267 -35.45172,13.95849 -10.6603,3.16275 -20.94151,5.1131 -32.27917,6.12344 -5.64229,0.50279 -18.2901,0.71401 -23.6385,0.39473 z"
         id="path1556-8-7"
         inkscape:export-filename="/Users/dirceu.junior/REPOSITORIOS/JAC/NewBiz/branco.png"
         inkscape:export-xdpi="95"
         inkscape:export-ydpi="95" />
      <path
         style="font-size:504.872px;line-height:1.25;fill:#ffffff;stroke:#ffffff;stroke-width:0.264583"
         d="m 341.54959,-888.45751 c -5.45705,-15.79633 -9.95728,-28.81877 -10.00049,-28.93873 -0.0428,-0.11996 0.90922,-0.29924 2.11665,-0.39838 13.69246,-1.12437 24.42674,-3.60913 31.16719,-7.21447 8.2129,-4.39299 14.31892,-10.82903 18.51707,-19.51776 3.39337,-7.02323 5.3542,-15.41751 6.07714,-26.01637 0.18649,-2.73466 0.27659,-45.89518 0.27659,-132.49008 v -128.4342 h 32.94533 32.94522 l -0.0806,138.7079 c -0.0747,128.04507 -0.1154,139.10436 -0.53148,143.86712 -2.28531,26.16491 -6.06698,40.33751 -14.29612,53.57813 -3.27897,5.27584 -8.70924,11.43291 -13.50568,15.31334 -12.99869,10.5161 -32.89275,17.01565 -59.1722,19.33206 -4.41351,0.38903 -13.64158,0.94188 -15.61038,0.93521 l -0.92605,-0.003 z"
         id="path1522-5-0"
         inkscape:export-filename="/Users/dirceu.junior/REPOSITORIOS/JAC/NewBiz/branco.png"
         inkscape:export-xdpi="95"
         inkscape:export-ydpi="95" />
      <text
         xml:space="preserve"
         style="font-size:181.819px;line-height:1.25;font-family:'Josefin Sans';-inkscape-font-specification:'Josefin Sans';fill:#f7b815;fill-opacity:1;stroke:#f7b815;stroke-width:4.54549"
         x="705.96472"
         y="-855.66827"
         id="text1569-37-1"
         inkscape:export-filename="/Users/dirceu.junior/REPOSITORIOS/JAC/NewBiz/branco.png"
         inkscape:export-xdpi="95"
         inkscape:export-ydpi="95"><tspan
           sodipodi:role="line"
           id="tspan1567-6-3"
           x="705.96472"
           y="-855.66827"
           style="fill:#f7b815;fill-opacity:1;stroke:#f7b815;stroke-width:4.54549">experts</tspan></text>
      <path
         id="path4425-8-4"
         style="color:#000000;font-size:504.872px;line-height:1.25;fill:#ffffff;stroke:#ffffff;stroke-width:13.6988;-inkscape-stroke:none"
         d="m 1069.8133,-1335.4516 v 384.49242 h 63.4586 v -92.76902 l 24.361,-21.1572 114.2657,113.92622 h 84.3707 l -11.1567,-10.99664 -140.8439,-138.81488 143.0303,-129.8961 h -82.3318 l -131.6953,123.8409 v -228.6257 z"
         inkscape:export-filename="/Users/dirceu.junior/REPOSITORIOS/JAC/NewBiz/branco.png"
         inkscape:export-xdpi="95"
         inkscape:export-ydpi="95" />
    </g>
  </g>
</svg>
