<?xml version="1.0" encoding="utf-8"?>
<!-- Generator: Adobe Illustrator 24.2.1, SVG Export Plug-In . SVG Version: 6.00 Build 0)  -->
<svg version="1.1" id="Camada_1" xmlns="http://www.w3.org/2000/svg" xmlns:xlink="http://www.w3.org/1999/xlink" x="0px" y="0px"
	 viewBox="0 0 226.7 133.6" style="enable-background:new 0 0 226.7 133.6;" xml:space="preserve">
<style type="text/css">
	.st0{fill:#191E37;}
	.st1{fill:#FFFFFF;}
</style>
<path class="st0" d="M39.4,74.3c-25,0-39.3-15.9-39.3-37.3C0.1,13.7,14,0.1,38.9,0.1c15.9,0,22.2,3.4,22.2,3.4v8.9c0,0-7.6-4-21.9-4
	c-15.4,0-29,6.7-29,27.5c0,20.7,14.2,29.8,31.2,29.8c13,0,19.8-3.1,19.8-3.1l0.2,8.7C61.4,71.3,53.1,74.3,39.4,74.3"/>
<rect x="84.9" y="31.7" class="st0" width="9.3" height="41.9"/>
<polygon class="st0" points="115.8,1 115.8,73.6 159.1,73.6 159.1,65 125.1,65 125.1,9.7 156.5,9.7 156.5,1 "/>
<path class="st0" d="M196.3,31.9c-4.8,0-8.4-0.3-8.4-0.3V8.2c0,0,4.1-0.2,7.5-0.2c10,0,15.6,3.4,15.6,11.6
	C211,26,206.4,31.9,196.3,31.9 M210.4,34.2c0,0,10.8-3.3,10.8-16.5c0-10.8-9.2-16.8-23.8-16.8c-7.2,0-18.8,0.1-18.8,0.1v38.2h16.8
	l0,0c12.5,0.1,20.7,3.8,20.7,13.8c0,10.1-7.7,13-16.8,13.1l0,0h-20.7v7.5c0,0,16,0.2,21.4,0.2c17.3,0,26.5-8.4,26.5-21.3
	C226.5,36.6,210.4,34.2,210.4,34.2"/>
<path class="st0" d="M5.2,120.3l-1.6,3.9h3.2L5.2,120.3z M9,129.6l-1.7-4.1H3.1l-1.7,4.1H0l4.6-11.2h1.3l4.6,11.2H9z"/>
<polygon class="st0" points="16.4,129.6 16.4,118.4 22.7,118.4 22.7,119.7 17.9,119.7 17.9,123.2 22.5,123.2 22.5,124.6 17.9,124.6 
	17.9,128.2 23.1,128.2 23.1,129.6 "/>
<path class="st0" d="M33.2,121c-1-1.1-2.3-1.4-4-1.4c-1.3,0-2.3,0.1-2.3,0.1v8.6c0,0,1.1,0.1,2.6,0.1c3,0,4.7-1.5,4.7-4.4
	C34.3,122.7,33.9,121.7,33.2,121 M34.2,128c-1.1,1.1-2.5,1.6-4.9,1.6c-1.5,0-3.8-0.1-3.8-0.1v-11.2c0,0,2.4,0,3.7,0
	c2.4,0,4,0.5,5.2,1.7c0.9,0.9,1.3,2.1,1.3,3.7C35.8,125.6,35.2,127,34.2,128"/>
<path class="st0" d="M47,125.7c-0.1,3.1-2.3,4-4.6,4c-2.5,0-4.5-0.9-4.6-3.6c0-0.6,0-1.9,0-3.3c0-1.6,0.1-4.4,0.1-4.4h1.4
	c0,0,0,2.6,0,4c0,0.9,0,2.2,0,3.3c0,1.9,1.2,2.8,3.2,2.8c2.1,0,3.2-0.8,3.3-3.1c0-0.4,0-1.3,0-2.4c0-2.4,0-4.6,0-4.6H47
	c0,0,0,3.5,0,4.6C47,123.8,47,125.1,47,125.7"/>
<path class="st0" d="M55.1,129.7c-3.8,0-6-2.5-6-5.7c0-3.6,2.1-5.7,6-5.7c2.5,0,3.4,0.5,3.4,0.5v1.4c0,0-1.2-0.6-3.4-0.6
	c-2.4,0-4.5,1-4.5,4.2s2.2,4.6,4.8,4.6c2,0,3.1-0.5,3.1-0.5v1.3C58.5,129.2,57.2,129.7,55.1,129.7"/>
<path class="st0" d="M65.4,120.3l-1.6,3.9H67L65.4,120.3z M69.2,129.6l-1.7-4.1h-4.2l-1.7,4.1h-1.5l4.6-11.2H66l4.6,11.2H69.2z"/>
<path class="st0" d="M77.6,129.7h-0.4l-0.3,0.7c1.2,0.2,1.9,0.8,1.9,1.7c0,1-0.8,1.6-1.9,1.6c-1,0-1.5-0.3-1.5-0.3l0.2-0.9
	c0,0,0.6,0.3,1.3,0.3c0.6,0,1-0.2,1-0.6c0-0.6-0.9-0.9-2-1.1v-0.6l0.5-0.9c-3-0.5-4.7-2.8-4.7-5.6c0-3.6,2.1-5.7,6-5.7
	c2.4,0,3.4,0.5,3.4,0.5v1.4c0,0-1.2-0.6-3.4-0.6c-2.4,0-4.5,1-4.5,4.2s2.2,4.6,4.8,4.6c2,0,3.1-0.5,3.1-0.5v1.3
	C81,129.2,79.7,129.7,77.6,129.7"/>
<path class="st0" d="M88.1,120.3l-1.6,3.9h3.2L88.1,120.3z M89.1,116.2c-0.8,0-1.4-0.7-2.1-0.7c-0.5,0-0.9,0.2-1.3,0.7l-0.4-0.9
	c0,0,0.7-1,1.8-1c0.9,0,1.4,0.7,2.1,0.7c0.8,0,1.3-0.7,1.3-0.7l0.4,0.9C90.9,115.3,90.2,116.2,89.1,116.2 M91.8,129.6l-1.7-4.1H86
	l-1.7,4.1h-1.5l4.6-11.2h1.3l4.6,11.2H91.8z"/>
<path class="st0" d="M100.1,119.5c-2.8,0-4.3,1.9-4.3,4.5c0,2.5,1.4,4.6,4.2,4.6c2.9,0,4.3-2,4.3-4.5
	C104.3,121.4,102.8,119.5,100.1,119.5 M100,129.7c-3.6,0-5.7-2.4-5.7-5.8c0-3.5,2.4-5.7,5.9-5.7c3.7,0,5.7,2.5,5.7,5.8
	C105.8,127.4,103.6,129.7,100,129.7"/>
<path class="st0" d="M115.1,124.3c-0.5,0-1.1,0-1.1,0v4c0,0,0.9,0.1,1.7,0.1c1.4,0,2.6-0.4,2.6-2
	C118.4,124.8,117.1,124.3,115.1,124.3 M115.2,119.5c-0.5,0-1.2,0-1.2,0v3.6c0,0,0.6,0,1.3,0c1.6,0,2.3-0.9,2.3-1.9
	C117.6,120,116.7,119.5,115.2,119.5 M115.9,129.6c-0.8,0-3.3,0-3.3,0v-11.2c0,0,1.8,0,2.9,0c2.2,0,3.7,0.9,3.7,2.6
	c0,2-1.7,2.5-1.7,2.5s2.5,0.4,2.5,2.8C120,128.3,118.6,129.6,115.9,129.6"/>
<path class="st0" d="M136.6,120.3l-1.6,3.9h3.2L136.6,120.3z M140.3,129.6l-1.7-4.1h-4.2l-1.7,4.1h-1.5l4.6-11.2h1.3l4.6,11.2H140.3
	z"/>
<path class="st0" d="M146.4,129.6c-2,0-3.1-0.7-3.1-0.7v-1.4c0,0,1.4,0.9,3,0.9c1.4,0,2.7-0.4,2.7-1.8c0-1.4-1.5-1.8-2.7-2.3
	c-1.3-0.5-2.8-1.3-2.8-3.2c0-1.9,1.5-2.8,3.4-2.8c2,0,3,0.6,3,0.6v1.3c0,0-1.3-0.7-2.9-0.7c-1.2,0-2,0.4-2,1.5
	c0,1.2,1.4,1.6,2.6,2.1c1.5,0.6,3.1,1.2,3.1,3.3C150.4,128.5,148.6,129.6,146.4,129.6"/>
<rect x="152.8" y="118.4" class="st0" width="1.4" height="11.2"/>
<polygon class="st0" points="157.2,129.6 157.2,118.4 158.6,118.4 158.6,128.2 163.6,128.2 163.6,129.6 "/>
<polygon class="st0" points="165.9,129.6 165.9,118.4 172.2,118.4 172.2,119.7 167.3,119.7 167.3,123.2 172,123.2 172,124.6 
	167.3,124.6 167.3,128.2 172.6,128.2 172.6,129.6 "/>
<rect x="175.2" y="118.4" class="st0" width="1.4" height="11.2"/>
<path class="st0" d="M194.2,120.3l1.6,3.9h-3.2L194.2,120.3z M193.5,118.4l-4.6,11.2h1.5l1.7-4.1h4.2l1.7,4.1h1.5l-4.6-11.2
	C194.9,118.4,193.5,118.4,193.5,118.4z"/>
<path class="st0" d="M125.1,124L125.1,124L125.1,124C125,124,125,124,125.1,124c-0.1,0-0.1,0-0.2,0h-1.5v-4.5h1.5
	c1.1,0,1.8,0.2,2.3,0.7c0.4,0.4,0.6,0.9,0.6,1.6c0,0.8-0.3,1.3-0.7,1.7C126.5,123.9,125.9,124,125.1,124 M127,124.9L127,124.9
	c1.2-0.5,2.3-1.4,2.3-3.2c0-0.9-0.3-1.6-0.8-2.2c-0.6-0.7-1.7-1-3.3-1h-0.5h-2.8l0,0v0.1v0.1v0.9v4.5v1.2v4.3h1.4v-4.3h2.2l2.8,4.4
	h1.7L127,124.9z"/>
<path class="st0" d="M182.3,124L182.3,124L182.3,124C182.2,124,182.2,124,182.3,124c-0.1,0-0.1,0-0.2,0h-1.5v-4.5h1.5
	c1.1,0,1.8,0.2,2.3,0.7c0.4,0.4,0.6,0.9,0.6,1.6c0,0.8-0.3,1.3-0.7,1.7C183.7,123.9,183.1,124,182.3,124 M184.2,124.9L184.2,124.9
	c1.1-0.5,2.3-1.4,2.3-3.2c0-0.9-0.3-1.6-0.8-2.2c-0.6-0.7-1.7-1-3.3-1h-0.5h-2.8l0,0v0.1v0.1v0.9v4.5v1.2v4.3h1.4v-4.3h2.2l2.8,4.4
	h1.7L184.2,124.9z"/>
<path class="st0" d="M78.7,101.9c-1-1.1-2.3-1.4-4-1.4c-1.3,0-2.3,0-2.3,0v8.6c0,0,1.1,0.1,2.6,0.1c3,0,4.7-1.5,4.7-4.4
	C79.7,103.6,79.3,102.6,78.7,101.9 M79.7,108.9c-1.1,1.1-2.5,1.6-4.9,1.6c-1.5,0-3.8-0.1-3.8-0.1V99.3c0,0,2.4,0,3.7,0
	c2.4,0,4,0.5,5.2,1.7c0.9,0.9,1.3,2.1,1.3,3.7C81.2,106.5,80.7,107.9,79.7,108.9"/>
<polygon class="st0" points="83.1,110.4 83.1,99.3 89.4,99.3 89.4,100.6 84.6,100.6 84.6,104.1 89.2,104.1 89.2,105.4 84.6,105.4 
	84.6,109.1 89.8,109.1 89.8,110.4 "/>
<rect x="97.6" y="99.3" class="st0" width="1.4" height="11.2"/>
<polygon class="st0" points="109.6,110.4 103.1,101.7 103.1,110.4 101.7,110.4 101.7,99.3 103.1,99.3 109.6,108 109.6,99.3 
	110.9,99.3 110.9,110.4 "/>
<path class="st0" d="M119.1,100.3c-2.8,0-4.3,1.9-4.3,4.5c0,2.5,1.4,4.6,4.2,4.6c2.9,0,4.3-2,4.3-4.5S121.8,100.3,119.1,100.3
	 M119,110.6c-3.6,0-5.7-2.4-5.7-5.8c0-3.5,2.4-5.7,5.9-5.7c3.7,0,5.7,2.5,5.7,5.8C124.8,108.3,122.6,110.6,119,110.6"/>
<polygon class="st0" points="131.4,110.4 130.1,110.4 125.7,99.3 127.3,99.3 130.8,108.4 134.3,99.3 135.8,99.3 "/>
<path class="st0" d="M140.2,101.1l-1.6,3.9h3.2L140.2,101.1z M143.9,110.4l-1.7-4.1H138l-1.7,4.1H135l4.6-11.2h1.3l4.6,11.2H143.9z"
	/>
<path class="st0" d="M152.2,110.5h-0.4l-0.3,0.7c1.2,0.2,1.9,0.8,1.9,1.7c0,1-0.8,1.6-1.9,1.6c-1,0-1.5-0.3-1.5-0.3l0.2-0.9
	c0,0,0.6,0.3,1.3,0.3c0.6,0,1-0.2,1-0.6c0-0.6-0.9-0.9-2-1.1v-0.6l0.5-0.9c-3-0.5-4.7-2.8-4.7-5.6c0-3.6,2.1-5.7,6-5.7
	c2.5,0,3.4,0.5,3.4,0.5v1.4c0,0-1.2-0.6-3.4-0.6c-2.4,0-4.5,1-4.5,4.2s2.2,4.6,4.8,4.6c2,0,3.1-0.5,3.1-0.5v1.3
	C155.6,110.1,154.3,110.5,152.2,110.5"/>
<path class="st0" d="M162.4,101.1l-1.6,3.9h3.2L162.4,101.1z M163.4,97.1c-0.8,0-1.4-0.7-2.1-0.7c-0.5,0-0.9,0.2-1.3,0.7l-0.4-0.9
	c0,0,0.7-1,1.8-1c0.9,0,1.4,0.7,2.1,0.7c0.8,0,1.3-0.7,1.3-0.7l0.4,0.9C165.2,96.2,164.5,97.1,163.4,97.1 M166.1,110.4l-1.7-4.1
	h-4.2l-1.7,4.1H157l4.6-11.2h1.3l4.6,11.2H166.1z"/>
<path class="st0" d="M173.9,100.3c-2.8,0-4.3,1.9-4.3,4.5c0,2.5,1.4,4.6,4.2,4.6c2.9,0,4.3-2,4.3-4.5S176.6,100.3,173.9,100.3
	 M173.8,110.6c-3.6,0-5.7-2.4-5.7-5.8c0-3.5,2.4-5.7,5.9-5.7c3.7,0,5.7,2.5,5.7,5.8C179.6,108.3,177.4,110.6,173.8,110.6"/>
<path class="st0" d="M6.3,110.5c-3.8,0-6-2.5-6-5.7c0-3.6,2.1-5.7,6-5.7c2.4,0,3.4,0.5,3.4,0.5v1.4c0,0-1.2-0.6-3.4-0.6
	c-2.4,0-4.5,1-4.5,4.2s2.2,4.6,4.8,4.6c2,0,3.1-0.5,3.1-0.5v1.3C9.7,110.1,8.4,110.5,6.3,110.5"/>
<polygon class="st0" points="12.2,110.4 12.2,99.3 18.5,99.3 18.5,100.6 13.7,100.6 13.7,104.1 18.3,104.1 18.3,105.4 13.7,105.4 
	13.7,109.1 18.9,109.1 18.9,110.4 "/>
<polygon class="st0" points="28.9,110.4 22.4,101.7 22.4,110.4 21,110.4 21,99.3 22.4,99.3 28.9,108 28.9,99.3 30.2,99.3 
	30.2,110.4 "/>
<polygon class="st0" points="37.5,100.6 37.5,110.4 36.1,110.4 36.1,100.6 32.1,100.6 32.1,99.3 41.5,99.3 41.5,100.6 "/>
<path class="st0" d="M58.4,100.3c-2.8,0-4.3,1.9-4.3,4.5c0,2.5,1.4,4.6,4.2,4.6c2.9,0,4.3-2,4.3-4.5S61.1,100.3,58.4,100.3
	 M58.2,110.6c-3.6,0-5.7-2.4-5.7-5.8c0-3.5,2.4-5.7,5.9-5.7c3.7,0,5.7,2.5,5.7,5.8C64.1,108.3,61.9,110.6,58.2,110.6"/>
<path class="st0" d="M46.6,104.9L46.6,104.9L46.6,104.9L46.6,104.9c-0.1,0-0.1,0-0.2,0H45v-4.5h1.5c1.1,0,1.8,0.2,2.3,0.7
	c0.4,0.4,0.6,0.9,0.6,1.6c0,0.8-0.3,1.3-0.7,1.7C48.1,104.8,47.5,104.9,46.6,104.9 M48.5,105.8L48.5,105.8c1.2-0.5,2.3-1.4,2.3-3.2
	c0-0.9-0.3-1.6-0.8-2.2c-0.6-0.7-1.7-1-3.3-1h-0.5h-2.8l0,0v0.1v0.1v0.9v4.5v1.2v4.3H45v-4.3h2.2l2.8,4.4h1.7L48.5,105.8z"/>
<path class="st0" d="M191.6,104.1C191.5,104.1,191.5,104.1,191.6,104.1L191.6,104.1C191.5,104.1,191.5,104.2,191.6,104.1
	c-0.1,0.1-0.2,0.2-0.2,0.2c-0.7,0.6-2.1,0.6-2.1,0.6h-1.5v-4.5h1.5c1.1,0,1.8,0.2,2.3,0.7c0.4,0.4,0.6,0.9,0.6,1.6
	C192.1,103.2,191.9,103.7,191.6,104.1 M192.8,100.3c-0.6-0.7-1.7-1-3.3-1H189h-2.8l0,0v11.2h1.4v-4.4h1.5c0.8,0,2.2-0.2,3.1-0.9
	c0,0,0,0,0.1,0c0,0,0.1,0,0.1-0.1c0.6-0.6,1.1-1.4,1.1-2.6C193.6,101.6,193.3,100.9,192.8,100.3"/>
<path class="st0" d="M198.7,101.1l-1.6,3.9h3.2L198.7,101.1z M202.5,110.4l-1.7-4.1h-4.2l-1.7,4.1h-1.5l4.6-11.2h1.3l4.6,11.2H202.5
	z"/>
<path class="st0" d="M221.5,101.1l1.6,3.9h-3.2L221.5,101.1z M220.8,99.3l-4.6,11.2h1.5l1.7-4.1h4.2l1.7,4.1h1.5l-4.6-11.2H220.8z"
	/>
<path class="st0" d="M209.6,104.9L209.6,104.9L209.6,104.9C209.5,104.9,209.5,104.9,209.6,104.9c-0.1,0-0.1,0-0.2,0h-1.5v-4.5h1.5
	c1.1,0,1.8,0.2,2.3,0.7c0.4,0.4,0.6,0.9,0.6,1.6c0,0.8-0.3,1.3-0.7,1.7C211,104.8,210.4,104.9,209.6,104.9 M211.5,105.7L211.5,105.7
	c1.2-0.5,2.3-1.4,2.3-3.2c0-0.9-0.3-1.6-0.8-2.2c-0.6-0.7-1.7-1-3.3-1h-0.5h-2.8l0,0v0.1v0.1v0.9v4.5v1.2v4.3h1.4v-4.3h2.2l2.8,4.4
	h1.7L211.5,105.7z"/>
<path class="st1" d="M90.1,17.3c4.8,0,8.6-3.9,8.6-8.6c0-4.8-3.9-8.6-8.6-8.6c-4.8,0-8.6,3.9-8.6,8.6S85.3,17.3,90.1,17.3"/>
<path class="st1" d="M146.6,48.7c4.8,0,8.6-3.9,8.6-8.6c0-4.8-3.9-8.6-8.6-8.6c-4.8,0-8.6,3.9-8.6,8.6S141.9,48.7,146.6,48.7"/>
<polygon class="st1" points="150,39 90.7,5.2 90.7,11.2 150,45.1 "/>
</svg>
