<svg xmlns="http://www.w3.org/2000/svg" xmlns:xlink="http://www.w3.org/1999/xlink" version="1.1" x="0px" y="0px" viewBox="0 0 64 64" enable-background="new 0 0 64 64" xml:space="preserve"><g><path fill="#000000" d="M61.081,37.216c-1.483-0.378-2.426-2.866-1.625-4.032c0.484-0.734,0.609-1.285-0.064-1.981   c-0.632-0.66-1.207-1.266-2.188-0.527c-0.274,0.211-0.686,0.237-0.921,0.313c-1.154-0.056-2.838-1.187-3.018-2.008   c-0.172-0.812-0.441-1.354-1.426-1.352l-0.222-0.009c-0.973-0.083-1.302,0.435-1.541,1.23c-0.23,0.804-2.018,1.793-3.172,1.754   c-0.227-0.095-0.636-0.155-0.892-0.388c-0.917-0.817-1.522-0.259-2.224,0.346c-0.711,0.639-0.649,1.198-0.226,1.969   c0.551,0.965-0.032,2.662-1.049,3.451c1.937,3.522,3.786,7.101,5.626,10.679c0.6,0.401,1.068,0.892,1.154,1.306   c0.172,0.821,0.458,1.355,1.435,1.352l0.214,0.009c0.973,0.083,1.302-0.426,1.541-1.23c0.23-0.796,2.018-1.793,3.172-1.746   c0.228,0.086,0.636,0.163,0.892,0.388c0.916,0.834,1.522,0.268,2.224-0.346c0.711-0.622,0.649-1.198,0.226-1.952   c-0.703-1.245,0.441-3.648,1.95-3.903c0.888-0.135,1.111-0.58,1.178-1.159l0.037-0.898C62.141,37.885,61.954,37.432,61.081,37.216z    M56.934,39.127c-0.376,2.896-2.915,5.096-5.875,5.001c-2.983-0.148-5.334-2.548-5.471-5.466l0.034-0.821   c0.376-2.914,2.916-5.105,5.901-5.008c2.974,0.148,5.309,2.539,5.445,5.473L56.934,39.127z"></path><path fill="#000000" d="M49.142,54.165c-3.227-6.131-6.573-12.341-9.81-18.325l-0.893-1.658c-2.099-3.865-2.286-4.473-1.903-8.505   c3.532-1.442,4.405-3.247,3.875-7.455c-0.304-2.384-2.197-4.14-4.503-4.159c-2.904-0.02-5.817-0.039-8.721-0.039h-2.345   c-2.913,0-5.817,0.02-8.721,0.039c-2.315,0.02-4.199,1.776-4.513,4.159c-0.52,4.218,0.353,6.013,3.875,7.455   c0.392,4.032,0.196,4.64-1.893,8.505l-0.893,1.658c-3.247,5.984-6.592,12.194-9.82,18.325c-1.236,2.354-1.373,4.552-0.383,6.19   c0.991,1.648,3.021,2.56,5.7,2.56c4.728,0,9.437,0.01,14.156,0.01h7.328c4.709,0,9.427-0.01,14.156-0.01   c2.678,0,4.699-0.912,5.69-2.56C50.525,58.717,50.388,56.52,49.142,54.165z M47.327,59.031c-0.51,0.853-1.756,1.315-3.502,1.324   c-5.945,0.01-11.87,0.01-17.815,0.01c-5.935,0-11.87,0-17.805-0.01c-1.756-0.01-2.992-0.471-3.512-1.324   c-0.5-0.844-0.334-2.148,0.471-3.669c3.218-6.121,6.563-12.321,9.79-18.315l0.893-1.638c1.069-1.982,2.178-3.993,2.335-6.278   c0.108-1.432,0.5-4.915-1.197-5.435c-0.52-0.167-1.03-0.334-1.471-0.667c-1.432-1.04-1.638-2.845-1.354-4.483   c0.118-0.942,0.844-1.903,1.982-1.913c2.894-0.029,5.798-0.039,8.701-0.039h2.345c2.904,0,5.798,0.01,8.701,0.039   c1.138,0.01,1.854,0.971,1.982,1.913c0.284,1.638,0.069,3.443-1.354,4.483c-0.451,0.334-0.952,0.5-1.471,0.667   c-1.697,0.52-1.305,4.002-1.197,5.435c0.157,2.286,1.266,4.297,2.335,6.278l0.883,1.638c3.237,5.994,6.582,12.194,9.8,18.315   C47.67,56.882,47.837,58.187,47.327,59.031z"></path><path fill="#000000" d="M22.846,7.265c-0.188,1.419-1.56,2.453-2.967,2.238C18.5,9.292,17.489,7.995,17.633,6.62   c0.144-1.383,1.548-2.482,2.944-2.305C22,4.496,23.035,5.841,22.846,7.265z"></path><path fill="#000000" d="M29.523,10.281c-0.188,1.419-1.56,2.453-2.967,2.238c-1.378-0.211-2.389-1.508-2.246-2.883   c0.144-1.383,1.548-2.482,2.944-2.305C28.677,7.513,29.712,8.858,29.523,10.281z"></path><path fill="#000000" d="M35.144,4.043c-0.188,1.419-1.56,2.453-2.967,2.238c-1.378-0.211-2.389-1.508-2.246-2.883   c0.144-1.383,1.548-2.482,2.944-2.305C34.298,1.275,35.333,2.62,35.144,4.043z"></path><path fill="#000000" d="M33.525,37.018c-0.108-0.186-6.19,2.227-6.739,2.403c-1.521,0.49-2.335,0.579-3.738-0.441   c-0.334-0.245-3.659-3.561-3.993-2.953c-2.953,5.405-8.574,15.588-11.674,21.248h37.258C40.401,49.555,37.87,44.944,33.525,37.018z    M42.373,56.137l0.108,0.186h-0.294L42.373,56.137z"></path></g></svg>