<svg xmlns="http://www.w3.org/2000/svg" width="1138" height="860" viewBox="0 0 800 604" fill="none">
  <title>Uma equipe conectada pela nuvem</title>
  <desc>Duas pessoas colaboram em um ambiente de Cloud Native, conectando código, containers e infraestrutura.</desc>
  <defs><pattern id="dots" width="24" height="24" patternUnits="userSpaceOnUse"><circle cx="2" cy="2" r="1.2" fill="#ded9cc"/></pattern></defs>
  <rect x="36" y="40" width="728" height="520" rx="100" fill="#f7f5ef"/>
  <path d="M60 70h184v135H60zM554 412h188v130H554z" fill="url(#dots)"/>
  <circle cx="670" cy="106" r="53" fill="#fff4d3"/>
  <g stroke="#161616" stroke-width="3" stroke-linecap="round" stroke-linejoin="round">
    <rect x="149" y="118" width="520" height="338" rx="18" fill="#e7e3d8" stroke="none"/>
    <rect x="138" y="107" width="520" height="338" rx="18" fill="white"/>
    <path d="M156 107h484a18 18 0 0 1 18 18v29H138v-29a18 18 0 0 1 18-18Z" fill="#161616"/>
    <g stroke="none"><circle cx="163" cy="132" r="5" fill="#f5b919"/><circle cx="181" cy="132" r="5" fill="#fff4d3"/><circle cx="199" cy="132" r="5" fill="#0a7cff"/></g>
    <path d="M578 131h15m17 0h15" stroke="#ded9cc"/>
    <path d="M398 268v32m-166 35v-35h332v35" stroke="#a9a394" stroke-dasharray="7 9"/>
    <path d="M355 258a25 25 0 0 1-2-50 47 47 0 0 1 89-6 29 29 0 0 1 2 58h-89Z" fill="#fff4d3"/>
    <path d="m384 229 11 11 20-24" stroke="#161616" stroke-width="4"/>
    <rect x="190" y="335" width="84" height="67" rx="12" fill="#f7f5ef"/>
    <path d="m219 355-13 12 13 12m26-24 13 12-13 12m-8-29-9 34"/>
    <rect x="356" y="335" width="84" height="67" rx="12" fill="#f5b919"/>
    <path d="m398 347-22 12v23l22 12 22-12v-23l-22-12Zm-22 12 22 12 22-12m-22 12v23"/>
    <rect x="522" y="335" width="84" height="67" rx="12" fill="#dcebff"/>
    <path d="M538 349h52v17h-52zm0 21h52v17h-52z" fill="white"/>
    <path d="M548 357h1m10 0h1m-12 21h1m10 0h1"/>
    <rect x="55" y="221" width="125" height="75" rx="13" fill="#f5b919"/>
    <path d="m76 248 12 11-12 11m27 0h24m14-24h16m-16 13h10"/>
    <rect x="602" y="255" width="123" height="74" rx="13" fill="white"/>
    <circle cx="629" cy="281" r="9" fill="#0a7cff" stroke="none"/>
    <path d="M649 279h50m-50 12h30m-57 19h76" stroke="#a9a394"/>
    <path d="M185 549v-47c0-37 30-68 67-68s67 31 67 68v47" fill="#f5b919"/>
    <path d="M236 437v-24h34v24l-17 15-17-15Z" fill="#ac704e"/>
    <path d="M220 368c0-29 64-32 64 0v30c0 20-14 35-32 35s-32-15-32-35Z" fill="#ac704e"/>
    <path d="M219 385c-19-45 9-68 35-61 27-14 50 26 29 57l-9-31c-15 14-35 15-48 9Z" fill="#161616"/>
    <path d="M235 389h1m30 0h1m-20 24c6 3 13 2 17-3"/>
    <path d="M225 497v32m64-32v32" stroke="#dda300"/>
    <path d="M260 465h91l20 84H242Z" fill="white"/>
    <path d="m291 494 10 9-10 9m24 0h13" stroke="#0a7cff"/>
    <path d="M453 549v-47c0-37 30-68 67-68s67 31 67 68v47" fill="#0a7cff"/>
    <path d="M481 378c0-63 80-62 80 1l5 64h-92Z" fill="#161616"/>
    <path d="M503 438v-24h34v24l-17 15-17-15Z" fill="#e6af8e"/>
    <path d="M489 369c19 8 34-2 45-17l18 21v27c0 19-14 34-32 34s-31-15-31-34Z" fill="#e6af8e"/>
    <path d="M503 390h1m29 0h1m-20 23c5 3 12 3 17-1"/>
    <rect x="497" y="381" width="19" height="16" rx="5"/><rect x="525" y="381" width="19" height="16" rx="5"/><path d="M516 386h9"/>
    <path d="M477 497v32m85-32v32" stroke="#0057c6"/>
    <path d="M419 465h91l18 84H399Z" fill="#fff4d3"/>
    <path d="m453 491-10 9 10 9m16-18 10 9-10 9"/>
    <path d="M162 550h448"/>
    <path d="M707 186v20m-10-10h20M84 412v18m-9-9h18" stroke="#a9a394"/>
  </g>
  <text x="231" y="137" fill="#f7f5ef" font-family="monospace" font-size="11" letter-spacing="1.4">CLOUD NATIVE / EM EQUIPE</text>
</svg>
